<?xml version="1.0" encoding="utf-8"?>
<!-- Generator: Adobe Illustrator 17.1.0, SVG Export Plug-In . SVG Version: 6.00 Build 0)  -->
<!DOCTYPE svg PUBLIC "-//W3C//DTD SVG 1.1//EN" "http://www.w3.org/Graphics/SVG/1.1/DTD/svg11.dtd">
<svg version="1.1" id="Layer_1" xmlns="http://www.w3.org/2000/svg" xmlns:xlink="http://www.w3.org/1999/xlink" x="0px" y="0px"
	 viewBox="0 0 150 50" enable-background="new 0 0 150 50" xml:space="preserve">
<g id="twitter">
	<path fill="#FFFFFF" d="M45.045,12.836c-1.038,1.557-2.394,2.971-4.066,4.239v1.038c0,2.712-0.506,5.437-1.514,8.176
		c-1.01,2.74-2.495,5.221-4.456,7.441c-1.962,2.221-4.384,4.038-7.268,5.451c-2.885,1.414-6.201,2.12-9.95,2.12
		c-4.615,0-8.797-1.212-12.546-3.634c0.288,0.058,0.606,0.086,0.952,0.086s0.692,0,1.038,0c1.903,0,3.72-0.303,5.451-0.909
		c1.73-0.605,3.288-1.456,4.672-2.552c-1.789-0.057-3.375-0.605-4.759-1.644c-1.384-1.038-2.336-2.393-2.855-4.067
		c0.23,0.116,0.461,0.173,0.692,0.173c0.23,0,0.489,0,0.779,0c0.749,0,1.471-0.086,2.163-0.26c-1.847-0.403-3.389-1.341-4.629-2.812
		c-1.241-1.471-1.86-3.215-1.86-5.234v-0.086c1.038,0.577,2.249,0.923,3.634,1.038c-1.096-0.749-1.977-1.716-2.639-2.898
		c-0.664-1.181-0.995-2.494-0.995-3.937c0-1.384,0.374-2.739,1.125-4.066c2.018,2.481,4.469,4.486,7.354,6.013
		c2.884,1.529,6.057,2.351,9.517,2.466c-0.173-0.519-0.259-1.125-0.259-1.817c0-1.095,0.216-2.148,0.649-3.158
		c0.433-1.008,1.008-1.874,1.73-2.596c0.721-0.721,1.586-1.298,2.596-1.73c1.008-0.433,2.09-0.649,3.245-0.649
		c2.364,0,4.326,0.837,5.883,2.509c0.98-0.173,1.888-0.418,2.725-0.735c0.836-0.316,1.658-0.706,2.466-1.168
		c-0.577,1.903-1.76,3.404-3.547,4.499C41.987,13.904,43.545,13.471,45.045,12.836z"/>
</g>
<g id="github">
	<path fill="#FFFFFF" d="M91.463,17.814c0.958,1.071,1.719,2.269,2.283,3.593c0.563,1.325,0.845,2.861,0.845,4.608
		c0,2.536-0.31,4.679-0.93,6.425c-0.621,1.748-1.437,3.185-2.452,4.312c-1.015,1.128-2.128,2.016-3.34,2.663
		c-1.213,0.648-2.396,1.114-3.551,1.395c-1.156,0.283-2.24,0.452-3.255,0.507c-1.015,0.057-1.775,0.085-2.283,0.085
		c-0.338,0-0.832,0.014-1.48,0.042c-0.648,0.029-1.367,0.042-2.156,0.042c-0.79,0-1.509-0.013-2.156-0.042
		c-0.648-0.028-1.141-0.042-1.479-0.042c-0.507,0-1.268-0.028-2.283-0.085c-1.014-0.055-2.1-0.225-3.255-0.507
		c-1.156-0.281-2.339-0.747-3.551-1.395c-1.213-0.647-2.325-1.535-3.339-2.663c-1.015-1.127-1.832-2.564-2.452-4.312
		c-0.621-1.746-0.93-3.889-0.93-6.425c0-1.747,0.281-3.283,0.845-4.608c0.563-1.324,1.324-2.522,2.283-3.593
		c-0.057-0.169-0.099-0.563-0.127-1.184c-0.029-0.62,0-1.353,0.084-2.198c0.084-0.845,0.239-1.789,0.465-2.832
		c0.225-1.042,0.535-2.071,0.93-3.086c0.732,0.114,1.606,0.338,2.621,0.676c0.846,0.283,1.86,0.733,3.044,1.353
		c1.184,0.621,2.507,1.41,3.974,2.367c0.62-0.169,1.408-0.296,2.367-0.38c0.958-0.085,1.944-0.127,2.959-0.127s2,0.042,2.959,0.127
		c0.958,0.084,1.746,0.211,2.367,0.38c1.465-0.958,2.79-1.747,3.974-2.367c1.184-0.62,2.198-1.07,3.043-1.353
		c1.015-0.338,1.888-0.563,2.621-0.676c0.393,1.015,0.704,2.044,0.93,3.086c0.225,1.043,0.38,1.987,0.465,2.832
		c0.084,0.845,0.112,1.579,0.084,2.198C91.56,17.251,91.518,17.644,91.463,17.814z M75.23,39.542c1.972,0,3.833-0.084,5.58-0.253
		c1.747-0.169,3.255-0.55,4.523-1.142c1.268-0.592,2.268-1.465,3.002-2.621c0.732-1.155,1.099-2.691,1.099-4.608
		c0-0.958-0.184-1.86-0.55-2.706c-0.367-0.845-0.944-1.634-1.733-2.367c-0.621-0.563-1.367-0.943-2.24-1.141
		c-0.875-0.197-1.818-0.296-2.832-0.296s-2.101,0.057-3.255,0.169c-1.156,0.114-2.354,0.169-3.593,0.169h-0.084h-0.084
		c-1.24,0-2.438-0.055-3.593-0.169c-1.156-0.112-2.241-0.169-3.255-0.169c-1.015,0-1.945,0.099-2.79,0.296
		c-0.846,0.198-1.607,0.579-2.283,1.141c-0.79,0.733-1.353,1.522-1.691,2.367c-0.338,0.846-0.507,1.748-0.507,2.706
		c0,1.917,0.366,3.453,1.099,4.608c0.732,1.156,1.733,2.029,3.002,2.621c1.268,0.592,2.761,0.972,4.481,1.142
		c1.719,0.169,3.564,0.253,5.538,0.253H75.23z M68.466,27.706c0.789,0,1.437,0.367,1.945,1.099c0.507,0.733,0.761,1.635,0.761,2.705
		c0,1.071-0.254,1.974-0.761,2.706c-0.507,0.733-1.156,1.099-1.945,1.099c-0.79,0-1.452-0.366-1.987-1.099
		c-0.536-0.732-0.803-1.634-0.803-2.706c0-1.07,0.267-1.972,0.803-2.705C67.014,28.073,67.676,27.706,68.466,27.706z M81.909,27.706
		c0.789,0,1.437,0.367,1.945,1.099c0.507,0.733,0.761,1.635,0.761,2.705c0,1.071-0.254,1.974-0.761,2.706
		c-0.507,0.733-1.156,1.099-1.945,1.099c-0.79,0-1.452-0.366-1.987-1.099c-0.536-0.732-0.803-1.634-0.803-2.706
		c0-1.07,0.267-1.972,0.803-2.705C80.457,28.073,81.119,27.706,81.909,27.706z"/>
</g>
<path fill="#FFFFFF" d="M137.654,9.665h-26.018c-1.652,0-2.991,1.339-2.991,2.991v23.018c0,1.652,1.339,2.991,2.991,2.991h2.009
	v3.702l8.24-3.702h15.769c1.652,0,2.991-1.339,2.991-2.991V12.656C140.645,11.004,139.306,9.665,137.654,9.665z M113.645,14.164
	c0-0.275,0.223-0.498,0.498-0.498h12.003c0.275,0,0.498,0.223,0.498,0.498v2.003c0,0.275-0.223,0.498-0.498,0.498h-12.003
	c-0.275,0-0.498-0.223-0.498-0.498V14.164z M122.645,31.167c0,0.275-0.223,0.498-0.498,0.498h-8.003
	c-0.275,0-0.498-0.223-0.498-0.498v-2.003c0-0.275,0.223-0.498,0.498-0.498h8.003c0.275,0,0.498,0.223,0.498,0.498V31.167z
	 M134.645,26.167c0,0.275-0.223,0.498-0.498,0.498h-20.003c-0.275,0-0.498-0.223-0.498-0.498v-2.003
	c0-0.275,0.223-0.498,0.498-0.498h20.003c0.275,0,0.498,0.223,0.498,0.498V26.167z M134.645,21.167c0,0.275-0.223,0.498-0.498,0.498
	h-20.003c-0.275,0-0.498-0.223-0.498-0.498v-2.003c0-0.275,0.223-0.498,0.498-0.498h20.003c0.275,0,0.498,0.223,0.498,0.498V21.167z
	"/>
</svg>
