<?xml version="1.0" encoding="utf-8"?>
<!-- Generator: Adobe Illustrator 16.2.1, SVG Export Plug-In . SVG Version: 6.00 Build 0)  -->
<!DOCTYPE svg PUBLIC "-//W3C//DTD SVG 1.1//EN" "http://www.w3.org/Graphics/SVG/1.1/DTD/svg11.dtd">
<svg version="1.1" id="Layer_1" xmlns="http://www.w3.org/2000/svg" xmlns:xlink="http://www.w3.org/1999/xlink" x="0px" y="0px"
	 width="264.054px" height="99px" viewBox="0 0 264.054 99" enable-background="new 0 0 264.054 99" xml:space="preserve">
<g>
	<path fill="#53AEE0" d="M89.945,84.404c0,3.801-2.334,7.518-6.137,7.518h-72.46c-3.8,0-7.451-3.717-7.451-7.518V4.885"/>
</g>
<g>
	<path fill="#3D81A6" d="M3.897,85.064c0,3.8,2.334,7.519,6.137,7.519h72.46c3.8,0,7.451-3.719,7.451-7.519V5.545"/>
</g>
<g>
	<path fill="#2B5B75" d="M89.945,6.163v79.521L46.921,44.736"/>
</g>
<text transform="matrix(1 0 0 1 295.2351 34.8892)" fill="#F63227" font-family="'ProximaNova-Light'" font-size="43.3872">Bourbon</text>
<text transform="matrix(1 0 0 1 294.2361 90.6084)" fill="#53AEE0" font-family="'ProximaNova-Semibold'" font-size="67.2308">NEAT</text>
<g>
	<path fill="#53AEE0" d="M131.933,92.583l-21.379-29.245v29.245h-9.547V47.74h9.816l20.774,28.17V47.74h9.547v44.843H131.933z"/>
	<path fill="#53AEE0" d="M149.526,92.583V47.74h31.732v8.403h-22.187v9.413h21.716v8.403h-21.716v10.22h22.187v8.403H149.526z"/>
	<path fill="#53AEE0" d="M219.68,92.583l-2.824-7.597h-19.228l-2.824,7.597h-10.823l17.277-44.843h11.968l17.277,44.843H219.68z
		 M207.243,57.287l-6.992,19.295h13.983L207.243,57.287z"/>
	<path fill="#53AEE0" d="M238.679,92.583V56.144h-13.11V47.74h35.767v8.403h-13.043v36.439H238.679z"/>
</g>
<rect x="101.01" y="5.545" fill="#F66042" width="160.326" height="33.455"/>
<g>
	<path fill="#FFFFFF" d="M127.151,32.239V11.163h8.658c3.54,0,5.814,2.054,5.814,5.372c0,2.654-1.801,4.456-3.697,4.834
		c2.243,0.348,4.107,2.686,4.107,5.182c0,3.507-2.275,5.688-6.035,5.688H127.151z M139.727,16.724c0-2.149-1.422-3.918-4.14-3.918
		h-6.636v7.805h6.636C138.305,20.61,139.727,18.904,139.727,16.724z M140.138,26.425c0-2.149-1.485-4.171-4.424-4.171h-6.763v8.342
		h6.763C138.495,30.596,140.138,28.984,140.138,26.425z"/>
	<path fill="#FFFFFF" d="M145.392,24.592c0-4.456,2.844-7.995,7.299-7.995c4.519,0,7.363,3.539,7.363,7.995
		s-2.845,8.026-7.363,8.026C148.236,32.618,145.392,29.048,145.392,24.592z M158.285,24.592c0-3.381-1.99-6.509-5.594-6.509
		c-3.539,0-5.561,3.128-5.561,6.509c0,3.413,2.021,6.541,5.561,6.541C156.295,31.133,158.285,28.005,158.285,24.592z"/>
	<path fill="#FFFFFF" d="M174.135,32.239v-2.244c-1.232,1.39-3.286,2.623-5.499,2.623c-3.096,0-4.803-1.454-4.803-4.898V16.977
		h1.644v10.365c0,2.97,1.485,3.792,3.696,3.792c1.96,0,3.95-1.169,4.962-2.528V16.977h1.644v15.263H174.135z"/>
	<path fill="#FFFFFF" d="M180.453,32.239V16.977h1.643V19.6c1.296-1.707,3.034-2.939,5.151-2.939v1.801
		c-0.285-0.063-0.506-0.063-0.822-0.063c-1.548,0-3.634,1.391-4.329,2.718v11.123H180.453z"/>
	<path fill="#FFFFFF" d="M190.202,32.239V11.163h1.644v8.279c1.232-1.738,3.159-2.844,5.309-2.844c4.076,0,6.825,3.191,6.825,8.026
		c0,4.897-2.78,7.994-6.825,7.994c-2.275,0-4.234-1.232-5.309-2.812v2.434H190.202z M196.87,31.133c3.412,0,5.34-2.812,5.34-6.509
		c0-3.697-1.928-6.541-5.34-6.541c-2.117,0-4.14,1.327-5.024,2.78v7.552C192.73,29.869,194.753,31.133,196.87,31.133z"/>
	<path fill="#FFFFFF" d="M207.044,24.592c0-4.456,2.844-7.995,7.299-7.995c4.52,0,7.363,3.539,7.363,7.995s-2.844,8.026-7.363,8.026
		C209.887,32.618,207.044,29.048,207.044,24.592z M219.936,24.592c0-3.381-1.991-6.509-5.594-6.509
		c-3.539,0-5.562,3.128-5.562,6.509c0,3.413,2.022,6.541,5.562,6.541C217.945,31.133,219.936,28.005,219.936,24.592z"/>
	<path fill="#FFFFFF" d="M235.839,32.239V21.906c0-2.938-1.484-3.823-3.697-3.823c-1.959,0-3.981,1.232-4.961,2.623v11.534h-1.643
		V16.977h1.643v2.307c1.106-1.327,3.287-2.686,5.499-2.686c3.097,0,4.803,1.517,4.803,4.961v10.681H235.839z"/>
</g>
</svg>
